<svg width="180" height="36" viewBox="0 0 180 36" fill="none" xmlns="http://www.w3.org/2000/svg">
<g clip-path="url(#clip0_144_9)">
<path fill-rule="evenodd" clip-rule="evenodd" d="M25 30.5C26.3132 30.5 27.6136 30.2413 28.8268 29.7388C30.0401 29.2362 31.1425 28.4997 32.0711 27.5711C32.9997 26.6425 33.7362 25.5401 34.2388 24.3268C34.7413 23.1136 35 21.8132 35 20.5C35 16.5218 33.4196 12.7064 30.6066 9.8934C27.7936 7.08035 23.9782 5.5 20 5.5C16.0218 5.5 12.2064 7.08035 9.3934 9.8934C6.58035 12.7064 5 16.5218 5 20.5C5 21.8132 5.25866 23.1136 5.7612 24.3268C6.26375 25.5401 7.00035 26.6425 7.92893 27.5711C8.85752 28.4997 9.95991 29.2362 11.1732 29.7388C12.3864 30.2413 13.6868 30.5 15 30.5H25ZM20 9.5C17.0826 9.5 14.2847 10.6589 12.2218 12.7218C10.1589 14.7847 9 17.5826 9 20.5C9 21.2879 9.15519 22.0681 9.45672 22.7961C9.75825 23.5241 10.2002 24.1855 10.7574 24.7426C11.3145 25.2998 11.9759 25.7417 12.7039 26.0433C13.4319 26.3448 14.2121 26.5 15 26.5H25C25.7879 26.5 26.5681 26.3448 27.2961 26.0433C28.0241 25.7417 28.6855 25.2998 29.2426 24.7426C29.7998 24.1855 30.2417 23.5241 30.5433 22.7961C30.8448 22.0681 31 21.2879 31 20.5C31 17.5826 29.8411 14.7847 27.7782 12.7218C25.7153 10.6589 22.9174 9.5 20 9.5Z" fill="#F29C33"/>
<path fill-rule="evenodd" clip-rule="evenodd" d="M13 35.5C11.2928 35.5 9.60238 35.112 8.02512 34.3582C6.44792 33.6044 5.0148 32.4995 3.80761 31.1066C2.60047 29.7137 1.64289 28.0602 0.989566 26.2403C0.336257 24.4204 0 22.4698 0 20.5C0 15.1957 2.10714 10.1086 5.85787 6.35786C9.60859 2.60714 14.6957 0.5 20 0.5C25.3043 0.5 30.3914 2.60714 34.1421 6.35786C37.8929 10.1086 40 15.1957 40 20.5C40 22.4698 39.6637 24.4204 39.0104 26.2403C38.3571 28.0602 37.3995 29.7137 36.1924 31.1066C34.9852 32.4995 33.5521 33.6044 31.9749 34.3582C30.3976 35.112 28.7072 35.5 27 35.5H13ZM8.68629 9.18629C11.6869 6.18571 15.7565 4.5 20 4.5C24.2435 4.5 28.3131 6.18571 31.3137 9.18629C34.3143 12.1869 36 16.2565 36 20.5C36 22.0179 35.7404 23.5107 35.2457 24.8888C34.751 26.2668 34.0376 27.4854 33.1696 28.4869C32.3026 29.4873 31.3045 30.2452 30.25 30.7492C29.1981 31.252 28.0957 31.5 27 31.5H13C11.9043 31.5 10.8019 31.252 9.74999 30.7492C8.69549 30.2452 7.6974 29.4873 6.83037 28.4869C5.96242 27.4854 5.24903 26.2668 4.75433 24.8888C4.25961 23.5107 4 22.0179 4 20.5C4 16.2565 5.68571 12.1869 8.68629 9.18629Z" fill="#EE6352"/>
<path opacity="0.4" d="M25 25.5H19.9956C19.6596 25.4997 19.3261 25.4655 19 25.399C18.368 25.27 17.7637 25.0192 17.2222 24.6573C16.3999 24.1079 15.759 23.3271 15.3806 22.4134C15.2579 22.1171 15.1645 21.8112 15.101 21.5C14.9686 20.8515 14.9657 20.1799 15.0961 19.5245C15.289 18.5546 15.7652 17.6637 16.4645 16.9645C17.1637 16.2652 18.0546 15.789 19.0245 15.5961C19.0549 15.59 19.0852 15.5843 19.1156 15.5788C19.4087 15.5262 19.7047 15.5 20 15.5C20.6535 15.5 21.3038 15.6281 21.9134 15.8806C22.827 16.259 23.6079 16.8999 24.1573 17.7221C24.7068 18.5444 25 19.5111 25 20.5H21C21 20.3022 20.9414 20.1089 20.8315 19.9444C20.7216 19.78 20.5654 19.6518 20.3827 19.5761C20.2 19.5004 19.9989 19.4806 19.8049 19.5192C19.6109 19.5578 19.4327 19.653 19.2929 19.7929C19.153 19.9327 19.0578 20.1109 19.0192 20.3049C18.9806 20.4989 19.0004 20.7 19.0761 20.8827C19.1518 21.0654 19.28 21.2216 19.4444 21.3315C19.6089 21.4414 19.8022 21.5 20 21.5H25C25.1313 21.5 25.2614 21.4741 25.3827 21.4239C25.504 21.3736 25.6142 21.3 25.7071 21.2071C25.8 21.1142 25.8736 21.004 25.9239 20.8827C25.9741 20.7614 26 20.6313 26 20.5C26 18.9087 25.3679 17.3826 24.2426 16.2574C23.1174 15.1321 21.5913 14.5 20 14.5C19.8274 14.5 19.6556 14.5074 19.485 14.5221C19.0657 14.5582 18.6535 14.6382 18.255 14.7594C17.8629 14.8785 17.484 15.0376 17.1243 15.234C16.7123 15.459 16.3255 15.733 15.973 16.0522C15.8996 16.1186 15.8277 16.187 15.7574 16.2574C15.2651 16.7496 14.8672 17.3187 14.5753 17.9363C14.4294 18.2451 14.3099 18.566 14.2185 18.8956C14.1139 19.2724 14.0459 19.6604 14.0166 20.0544C14.0056 20.2022 14 20.3508 14 20.5C14 21.2841 14.1537 22.0646 14.4567 22.7961C14.9109 23.8925 15.6799 24.8295 16.6666 25.4888C16.6722 25.4926 16.6778 25.4963 16.6834 25.5H15C14.3434 25.5 13.6932 25.3707 13.0866 25.1194C12.48 24.8681 11.9288 24.4998 11.4645 24.0355C11.0002 23.5712 10.6319 23.02 10.3806 22.4134C10.1293 21.8068 10 21.1566 10 20.5C10 17.8478 11.0536 15.3043 12.9289 13.4289C14.8043 11.5536 17.3478 10.5 20 10.5C22.6522 10.5 25.1957 11.5536 27.0711 13.4289C28.9464 15.3043 30 17.8478 30 20.5C30 21.1566 29.8707 21.8068 29.6194 22.4134C29.3681 23.02 28.9998 23.5712 28.5355 24.0355C28.0712 24.4998 27.52 24.8681 26.9134 25.1194C26.3068 25.3707 25.6566 25.5 25 25.5Z" fill="#F29C33"/>
</g>
<path d="M55.1338 12.4624H57.3237C57.2798 13.1802 57.082 13.8174 56.7305 14.374C56.3838 14.9307 55.8979 15.3652 55.2729 15.6777C54.6528 15.9902 53.9058 16.1465 53.0317 16.1465C52.3481 16.1465 51.7354 16.0293 51.1934 15.7949C50.6514 15.5557 50.1875 15.2139 49.8018 14.7695C49.4209 14.3252 49.1304 13.7881 48.9302 13.1582C48.73 12.5283 48.6299 11.8228 48.6299 11.0415V10.3018C48.6299 9.52051 48.7324 8.81494 48.9375 8.18506C49.1475 7.55029 49.4453 7.01074 49.8311 6.56641C50.2217 6.12207 50.688 5.78027 51.23 5.54102C51.772 5.30176 52.3774 5.18213 53.0464 5.18213C53.9351 5.18213 54.6846 5.34326 55.2949 5.66553C55.9102 5.98779 56.3862 6.43213 56.7231 6.99854C57.0649 7.56494 57.27 8.20947 57.3384 8.93213H55.1411C55.1167 8.50244 55.0312 8.13867 54.8848 7.84082C54.7383 7.53809 54.5161 7.31104 54.2183 7.15967C53.9253 7.00342 53.5347 6.92529 53.0464 6.92529C52.6802 6.92529 52.3604 6.99365 52.0869 7.13037C51.8135 7.26709 51.584 7.47461 51.3984 7.75293C51.2129 8.03125 51.0737 8.38281 50.981 8.80762C50.8931 9.22754 50.8491 9.7207 50.8491 10.2871V11.0415C50.8491 11.5933 50.8906 12.0791 50.9736 12.499C51.0566 12.9141 51.1836 13.2656 51.3545 13.5537C51.5303 13.8369 51.7549 14.0518 52.0283 14.1982C52.3066 14.3398 52.6411 14.4106 53.0317 14.4106C53.4907 14.4106 53.8691 14.3374 54.167 14.1909C54.4648 14.0444 54.6919 13.8271 54.8481 13.5391C55.0093 13.251 55.1045 12.8921 55.1338 12.4624ZM58.2979 12.1182V11.9644C58.2979 11.3833 58.3809 10.8486 58.5469 10.3604C58.7129 9.86719 58.9546 9.43994 59.272 9.07861C59.5894 8.71729 59.98 8.43652 60.4438 8.23633C60.9077 8.03125 61.4399 7.92871 62.0405 7.92871C62.6411 7.92871 63.1758 8.03125 63.6445 8.23633C64.1133 8.43652 64.5063 8.71729 64.8237 9.07861C65.146 9.43994 65.3901 9.86719 65.5562 10.3604C65.7222 10.8486 65.8052 11.3833 65.8052 11.9644V12.1182C65.8052 12.6943 65.7222 13.229 65.5562 13.7222C65.3901 14.2104 65.146 14.6377 64.8237 15.0039C64.5063 15.3652 64.1157 15.646 63.6519 15.8462C63.188 16.0464 62.6558 16.1465 62.0552 16.1465C61.4546 16.1465 60.9199 16.0464 60.4512 15.8462C59.9873 15.646 59.5942 15.3652 59.272 15.0039C58.9546 14.6377 58.7129 14.2104 58.5469 13.7222C58.3809 13.229 58.2979 12.6943 58.2979 12.1182ZM60.4072 11.9644V12.1182C60.4072 12.4502 60.4365 12.7603 60.4951 13.0483C60.5537 13.3364 60.6465 13.5903 60.7734 13.8101C60.9053 14.0249 61.0762 14.1934 61.2861 14.3154C61.4961 14.4375 61.7524 14.4985 62.0552 14.4985C62.3481 14.4985 62.5996 14.4375 62.8096 14.3154C63.0195 14.1934 63.188 14.0249 63.3149 13.8101C63.4419 13.5903 63.5347 13.3364 63.5933 13.0483C63.6567 12.7603 63.6885 12.4502 63.6885 12.1182V11.9644C63.6885 11.6421 63.6567 11.3394 63.5933 11.0562C63.5347 10.7681 63.4395 10.5142 63.3076 10.2944C63.1807 10.0698 63.0122 9.89404 62.8022 9.76709C62.5923 9.64014 62.3384 9.57666 62.0405 9.57666C61.7427 9.57666 61.4888 9.64014 61.2788 9.76709C61.0737 9.89404 60.9053 10.0698 60.7734 10.2944C60.6465 10.5142 60.5537 10.7681 60.4951 11.0562C60.4365 11.3394 60.4072 11.6421 60.4072 11.9644ZM66.7646 12.1182V11.9644C66.7646 11.3833 66.8477 10.8486 67.0137 10.3604C67.1797 9.86719 67.4214 9.43994 67.7388 9.07861C68.0562 8.71729 68.4468 8.43652 68.9106 8.23633C69.3745 8.03125 69.9067 7.92871 70.5073 7.92871C71.1079 7.92871 71.6426 8.03125 72.1113 8.23633C72.5801 8.43652 72.9731 8.71729 73.2905 9.07861C73.6128 9.43994 73.8569 9.86719 74.0229 10.3604C74.189 10.8486 74.272 11.3833 74.272 11.9644V12.1182C74.272 12.6943 74.189 13.229 74.0229 13.7222C73.8569 14.2104 73.6128 14.6377 73.2905 15.0039C72.9731 15.3652 72.5825 15.646 72.1187 15.8462C71.6548 16.0464 71.1226 16.1465 70.522 16.1465C69.9214 16.1465 69.3867 16.0464 68.918 15.8462C68.4541 15.646 68.061 15.3652 67.7388 15.0039C67.4214 14.6377 67.1797 14.2104 67.0137 13.7222C66.8477 13.229 66.7646 12.6943 66.7646 12.1182ZM68.874 11.9644V12.1182C68.874 12.4502 68.9033 12.7603 68.9619 13.0483C69.0205 13.3364 69.1133 13.5903 69.2402 13.8101C69.3721 14.0249 69.543 14.1934 69.7529 14.3154C69.9629 14.4375 70.2192 14.4985 70.522 14.4985C70.8149 14.4985 71.0664 14.4375 71.2764 14.3154C71.4863 14.1934 71.6548 14.0249 71.7817 13.8101C71.9087 13.5903 72.0015 13.3364 72.0601 13.0483C72.1235 12.7603 72.1553 12.4502 72.1553 12.1182V11.9644C72.1553 11.6421 72.1235 11.3394 72.0601 11.0562C72.0015 10.7681 71.9062 10.5142 71.7744 10.2944C71.6475 10.0698 71.479 9.89404 71.269 9.76709C71.0591 9.64014 70.8052 9.57666 70.5073 9.57666C70.2095 9.57666 69.9556 9.64014 69.7456 9.76709C69.5405 9.89404 69.3721 10.0698 69.2402 10.2944C69.1133 10.5142 69.0205 10.7681 68.9619 11.0562C68.9033 11.3394 68.874 11.6421 68.874 11.9644ZM77.6777 4.74268V16H75.5684V4.74268H77.6777ZM82.6729 8.0752L79.2305 12.001L77.3848 13.8687L76.6157 12.3452L78.0806 10.4849L80.1387 8.0752H82.6729ZM80.4829 16L78.1392 12.3379L79.5967 11.0635L82.9146 16H80.4829ZM87.8657 13.8101C87.8657 13.6587 87.8218 13.522 87.7339 13.3999C87.646 13.2778 87.4824 13.1655 87.2432 13.063C87.0088 12.9556 86.6694 12.8579 86.2251 12.77C85.8247 12.6821 85.4512 12.5723 85.1045 12.4404C84.7627 12.3037 84.4648 12.1401 84.2109 11.9497C83.9619 11.7593 83.7666 11.5347 83.625 11.2759C83.4834 11.0122 83.4126 10.7119 83.4126 10.375C83.4126 10.043 83.4834 9.73047 83.625 9.4375C83.7715 9.14453 83.979 8.88574 84.2476 8.66113C84.521 8.43164 84.853 8.25342 85.2437 8.12646C85.6392 7.99463 86.0835 7.92871 86.5767 7.92871C87.2651 7.92871 87.856 8.03857 88.3491 8.2583C88.8472 8.47803 89.228 8.78076 89.4917 9.1665C89.7603 9.54736 89.8945 9.98193 89.8945 10.4702H87.7852C87.7852 10.2651 87.7412 10.082 87.6533 9.9209C87.5703 9.75488 87.4385 9.62549 87.2578 9.53271C87.082 9.43506 86.8525 9.38623 86.5693 9.38623C86.335 9.38623 86.1323 9.42773 85.9614 9.51074C85.7905 9.58887 85.6587 9.69629 85.5659 9.83301C85.478 9.96484 85.4341 10.1113 85.4341 10.2725C85.4341 10.3945 85.4585 10.5044 85.5073 10.6021C85.561 10.6948 85.6465 10.7803 85.7637 10.8584C85.8809 10.9365 86.0322 11.0098 86.2178 11.0781C86.4082 11.1416 86.6426 11.2002 86.9209 11.2539C87.4922 11.3711 88.0024 11.5249 88.4517 11.7153C88.9009 11.9009 89.2573 12.1548 89.521 12.4771C89.7847 12.7944 89.9165 13.2119 89.9165 13.7295C89.9165 14.0811 89.8384 14.4033 89.6821 14.6963C89.5259 14.9893 89.3013 15.2456 89.0083 15.4653C88.7153 15.6802 88.3638 15.8486 87.9536 15.9707C87.5483 16.0879 87.0918 16.1465 86.584 16.1465C85.8467 16.1465 85.2217 16.0146 84.709 15.751C84.2012 15.4873 83.8154 15.1528 83.5518 14.7476C83.293 14.3374 83.1636 13.9175 83.1636 13.4878H85.1631C85.1729 13.7759 85.2461 14.0078 85.3828 14.1836C85.5244 14.3594 85.7026 14.4863 85.9175 14.5645C86.1372 14.6426 86.374 14.6816 86.6279 14.6816C86.9014 14.6816 87.1284 14.645 87.3091 14.5718C87.4897 14.4937 87.6265 14.3911 87.7192 14.2642C87.8169 14.1323 87.8657 13.981 87.8657 13.8101ZM52.2261 31H49.9043L49.9189 29.2861H52.2261C52.8022 29.2861 53.2881 29.1567 53.6836 28.8979C54.0791 28.6343 54.377 28.251 54.5771 27.748C54.7822 27.2451 54.8848 26.6372 54.8848 25.9243V25.4043C54.8848 24.8574 54.8262 24.3765 54.709 23.9614C54.5967 23.5464 54.4282 23.1973 54.2036 22.9141C53.979 22.6309 53.7031 22.4185 53.376 22.2769C53.0488 22.1304 52.6729 22.0571 52.248 22.0571H49.8604V20.3359H52.248C52.9609 20.3359 53.6128 20.458 54.2036 20.7021C54.7993 20.9414 55.3145 21.2856 55.749 21.7349C56.1836 22.1841 56.5181 22.7212 56.7524 23.3462C56.9917 23.9663 57.1113 24.6572 57.1113 25.4189V25.9243C57.1113 26.6812 56.9917 27.3721 56.7524 27.9971C56.5181 28.6221 56.1836 29.1592 55.749 29.6084C55.3193 30.0527 54.8042 30.397 54.2036 30.6411C53.6079 30.8804 52.9487 31 52.2261 31ZM51.1494 20.3359V31H48.9521V20.3359H51.1494ZM62.2236 31.1465C61.6084 31.1465 61.0566 31.0488 60.5684 30.8535C60.0801 30.6533 59.665 30.3774 59.3232 30.0259C58.9863 29.6743 58.7275 29.2666 58.5469 28.8027C58.3662 28.334 58.2759 27.8359 58.2759 27.3086V27.0156C58.2759 26.415 58.3613 25.8657 58.5322 25.3677C58.7031 24.8696 58.9473 24.4375 59.2646 24.0713C59.5869 23.7051 59.9775 23.4243 60.4365 23.229C60.8955 23.0288 61.4131 22.9287 61.9893 22.9287C62.5508 22.9287 63.0488 23.0215 63.4834 23.207C63.918 23.3926 64.2817 23.6562 64.5747 23.998C64.8726 24.3398 65.0972 24.75 65.2485 25.2285C65.3999 25.7021 65.4756 26.2295 65.4756 26.8105V27.6895H59.1768V26.2832H63.4028V26.1221C63.4028 25.8291 63.3491 25.5679 63.2417 25.3384C63.1392 25.104 62.9829 24.9185 62.7729 24.7817C62.563 24.645 62.2944 24.5767 61.9673 24.5767C61.689 24.5767 61.4497 24.6377 61.2495 24.7598C61.0493 24.8818 60.8857 25.0527 60.7588 25.2725C60.6367 25.4922 60.5439 25.751 60.4805 26.0488C60.4219 26.3418 60.3926 26.6641 60.3926 27.0156V27.3086C60.3926 27.626 60.4365 27.9189 60.5244 28.1875C60.6172 28.4561 60.7466 28.688 60.9126 28.8833C61.0835 29.0786 61.2886 29.23 61.5278 29.3374C61.772 29.4448 62.0479 29.4985 62.3555 29.4985C62.7363 29.4985 63.0903 29.4253 63.4175 29.2788C63.7495 29.1274 64.0352 28.9004 64.2744 28.5977L65.2998 29.7109C65.1338 29.9502 64.9067 30.1797 64.6187 30.3994C64.3354 30.6191 63.9937 30.7998 63.5933 30.9414C63.1929 31.0781 62.7363 31.1465 62.2236 31.1465ZM68.9033 19.75V31H66.7866V19.75H68.9033ZM72.873 23.0752V31H70.7563V23.0752H72.873ZM70.6245 21.0098C70.6245 20.7021 70.7319 20.4482 70.9468 20.248C71.1616 20.0479 71.4497 19.9478 71.811 19.9478C72.1675 19.9478 72.4531 20.0479 72.668 20.248C72.8877 20.4482 72.9976 20.7021 72.9976 21.0098C72.9976 21.3174 72.8877 21.5713 72.668 21.7715C72.4531 21.9717 72.1675 22.0718 71.811 22.0718C71.4497 22.0718 71.1616 21.9717 70.9468 21.7715C70.7319 21.5713 70.6245 21.3174 70.6245 21.0098ZM79.6333 23.0752H81.5449V30.7363C81.5449 31.459 81.3838 32.0718 81.0615 32.5747C80.7441 33.0825 80.2998 33.4658 79.7285 33.7246C79.1572 33.9883 78.4932 34.1201 77.7363 34.1201C77.4043 34.1201 77.0527 34.0762 76.6816 33.9883C76.3154 33.9004 75.9639 33.7637 75.627 33.5781C75.2949 33.3926 75.0166 33.1582 74.792 32.875L75.7222 31.6299C75.9663 31.9131 76.2495 32.1328 76.5718 32.2891C76.894 32.4502 77.2505 32.5308 77.6411 32.5308C78.022 32.5308 78.3442 32.46 78.6079 32.3184C78.8716 32.1816 79.0742 31.979 79.2158 31.7104C79.3574 31.4468 79.4282 31.127 79.4282 30.751V24.9062L79.6333 23.0752ZM74.3013 27.1328V26.979C74.3013 26.3735 74.3745 25.8242 74.521 25.3311C74.6724 24.833 74.8848 24.4058 75.1582 24.0493C75.4365 23.6929 75.7734 23.417 76.1689 23.2217C76.5645 23.0264 77.0112 22.9287 77.5093 22.9287C78.0366 22.9287 78.4785 23.0264 78.835 23.2217C79.1914 23.417 79.4844 23.6953 79.7139 24.0566C79.9434 24.4131 80.1216 24.8354 80.2485 25.3237C80.3804 25.8071 80.4829 26.3369 80.5562 26.9131V27.25C80.4829 27.8018 80.373 28.3145 80.2266 28.7881C80.0801 29.2617 79.8872 29.6768 79.6479 30.0332C79.4087 30.3848 79.1108 30.6582 78.7544 30.8535C78.4028 31.0488 77.9829 31.1465 77.4946 31.1465C77.0063 31.1465 76.5645 31.0464 76.1689 30.8462C75.7783 30.646 75.4438 30.3652 75.1655 30.0039C74.8872 29.6426 74.6724 29.2178 74.521 28.7295C74.3745 28.2412 74.3013 27.709 74.3013 27.1328ZM76.4106 26.979V27.1328C76.4106 27.46 76.4424 27.7651 76.5059 28.0483C76.5693 28.3315 76.667 28.583 76.7988 28.8027C76.9355 29.0176 77.104 29.186 77.3042 29.3081C77.5093 29.4253 77.751 29.4839 78.0293 29.4839C78.415 29.4839 78.73 29.4033 78.9741 29.2422C79.2183 29.0762 79.4014 28.8491 79.5234 28.561C79.6455 28.2729 79.7163 27.9409 79.7358 27.5649V26.6055C79.7261 26.2979 79.6846 26.022 79.6113 25.7778C79.5381 25.5288 79.4355 25.3164 79.3037 25.1406C79.1719 24.9648 79.001 24.8281 78.791 24.7305C78.5811 24.6328 78.332 24.584 78.0439 24.584C77.7656 24.584 77.5239 24.6475 77.3188 24.7744C77.1187 24.8965 76.9502 25.0649 76.8135 25.2798C76.6816 25.4946 76.5815 25.7485 76.5132 26.0415C76.4448 26.3296 76.4106 26.6421 76.4106 26.979ZM85.2437 19.75V31H83.1343V19.75H85.2437ZM84.9434 26.7593H84.3647C84.3696 26.2075 84.4429 25.6997 84.5845 25.2358C84.7261 24.7671 84.9287 24.3618 85.1924 24.02C85.4561 23.6733 85.771 23.4048 86.1372 23.2144C86.5083 23.0239 86.9185 22.9287 87.3677 22.9287C87.7583 22.9287 88.1123 22.9849 88.4297 23.0972C88.752 23.2046 89.0278 23.3804 89.2573 23.6245C89.4917 23.8638 89.6724 24.1787 89.7993 24.5693C89.9263 24.96 89.9897 25.4336 89.9897 25.9902V31H87.8657V25.9756C87.8657 25.624 87.8145 25.3481 87.7119 25.1479C87.6143 24.9429 87.4702 24.7988 87.2798 24.7158C87.0942 24.6279 86.8647 24.584 86.5913 24.584C86.2886 24.584 86.0298 24.6401 85.8149 24.7524C85.605 24.8647 85.4365 25.021 85.3096 25.2212C85.1826 25.4165 85.0898 25.646 85.0312 25.9097C84.9727 26.1733 84.9434 26.4565 84.9434 26.7593ZM95.4756 23.0752V24.5693H90.8613V23.0752H95.4756ZM92.0039 21.1196H94.1133V28.6123C94.1133 28.8418 94.1426 29.0176 94.2012 29.1396C94.2646 29.2617 94.3574 29.3472 94.4795 29.396C94.6016 29.4399 94.7554 29.4619 94.9409 29.4619C95.0728 29.4619 95.1899 29.457 95.2925 29.4473C95.3999 29.4326 95.4902 29.418 95.5635 29.4033L95.5708 30.9561C95.3901 31.0146 95.1948 31.061 94.9849 31.0952C94.7749 31.1294 94.543 31.1465 94.2891 31.1465C93.8252 31.1465 93.4199 31.0708 93.0732 30.9194C92.7314 30.7632 92.4678 30.5142 92.2822 30.1724C92.0967 29.8306 92.0039 29.3813 92.0039 28.8247V21.1196Z" fill="#262522"/>
<defs>
<clipPath id="clip0_144_9">
<rect width="40" height="35" fill="white" transform="translate(0 0.5)"/>
</clipPath>
</defs>
</svg>
